<?xml version="1.0" standalone="no"?>
<!DOCTYPE svg PUBLIC "-//W3C//DTD SVG 20010904//EN"
 "http://www.w3.org/TR/2001/REC-SVG-20010904/DTD/svg10.dtd">
<svg version="1.0" xmlns="http://www.w3.org/2000/svg"
 width="418.000000pt" height="414.000000pt" viewBox="0 0 418.000000 414.000000"
 preserveAspectRatio="xMidYMid meet">
<metadata>
Created by potrace 1.16, written by Peter Selinger 2001-2019
</metadata>
<g transform="translate(0.000000,414.000000) scale(0.100000,-0.100000)"
fill="#000000" stroke="none">
<path d="M871 3759 c-30 -22 -50 -39 -45 -39 5 0 -4 -7 -21 -15 -39 -20 -186
-154 -276 -252 -71 -78 -198 -241 -199 -255 0 -5 10 -8 23 -8 21 -1 20 -2 -5
-16 -16 -8 -28 -21 -28 -29 0 -17 18 -19 39 -6 15 10 41 -9 41 -29 0 -7 6 -10
14 -7 16 6 33 -42 19 -52 -4 -3 -8 -12 -9 -18 -2 -28 -5 -31 -24 -26 -11 3
-20 1 -20 -4 0 -12 -43 -12 -51 0 -4 5 -12 6 -18 3 -14 -9 -15 -46 -1 -47 6
-1 13 -2 18 -3 4 -1 21 -5 38 -10 29 -7 31 -9 28 -47 -4 -43 15 -76 33 -58 5
5 18 7 28 3 17 -7 17 -8 0 -20 -18 -13 -18 -14 0 -34 21 -23 55 -27 55 -6 0
17 22 15 45 -4 9 -8 30 -13 46 -12 21 2 29 -2 29 -13 0 -9 -4 -13 -10 -10 -5
3 -10 1 -10 -4 0 -6 -7 -11 -15 -11 -8 0 -15 -7 -15 -16 0 -8 4 -12 10 -9 5 3
7 0 4 -9 -9 -24 -34 -6 -34 25 0 22 -5 29 -19 29 -10 0 -22 -7 -25 -16 -4 -12
-2 -15 9 -10 8 3 15 4 15 2 0 -3 3 -12 6 -21 6 -14 2 -16 -22 -13 -22 2 -30
-2 -32 -16 -3 -14 0 -17 12 -13 10 4 16 1 16 -8 0 -8 7 -15 16 -15 8 0 12 -5
9 -11 -5 -7 -13 -5 -25 6 -19 18 -34 7 -24 -18 3 -9 -3 -16 -17 -20 -14 -4
-20 -11 -16 -21 4 -9 2 -16 -3 -16 -6 0 -10 6 -10 13 0 8 -3 8 -9 -2 -14 -21
-2 -43 20 -36 11 4 19 2 19 -3 0 -13 168 -14 176 -1 4 8 9 7 14 -2 13 -20 40
-20 40 1 0 26 50 37 66 15 7 -9 17 -14 23 -11 5 3 12 -2 14 -11 4 -14 5 -13 6
4 1 27 18 38 35 23 11 -8 15 -8 19 2 2 7 8 10 12 6 12 -11 -18 -35 -38 -30
-29 7 -20 -60 10 -73 18 -8 23 -20 28 -70 3 -33 2 -73 -3 -90 -7 -25 -13 -30
-40 -30 -24 0 -32 -4 -32 -17 0 -10 6 -17 12 -15 8 1 12 -8 10 -25 -2 -14 2
-29 7 -33 6 -3 11 -2 11 2 0 5 7 18 15 29 13 18 14 16 15 -23 0 -32 -4 -43
-15 -43 -8 0 -15 4 -15 9 0 5 -7 12 -16 15 -9 4 -13 2 -8 -5 4 -7 -1 -9 -15
-4 -17 5 -20 3 -14 -12 10 -29 40 -53 57 -47 9 3 16 1 16 -5 0 -6 -12 -11 -27
-11 -16 0 -23 -4 -17 -8 6 -4 17 -21 24 -39 8 -17 18 -29 22 -27 4 3 8 -6 8
-20 0 -36 -15 -33 -31 6 -7 17 -15 26 -17 20 -3 -9 -9 -9 -24 -1 -16 9 -19 8
-16 -3 3 -7 10 -13 16 -13 21 0 27 -17 9 -30 -12 -8 -14 -15 -7 -20 5 -3 8
-10 5 -15 -3 -4 3 -11 12 -14 9 -4 20 -1 24 5 17 28 26 -8 32 -119 8 -155 6
-163 -43 -157 -52 7 -60 -11 -13 -25 67 -18 74 -30 17 -30 l-50 0 4 -85 5 -85
-28 10 c-23 9 -26 8 -22 -4 4 -9 2 -18 -2 -21 -11 -6 -18 22 -27 111 -7 83
-16 103 -36 86 -8 -6 -61 -12 -123 -14 -104 -3 -110 -4 -107 -23 5 -28 9 -30
27 -15 11 10 15 10 15 0 0 -6 -9 -14 -20 -17 -11 -3 -20 -14 -20 -24 0 -22
-27 -25 -53 -5 -11 9 -17 24 -15 45 2 29 18 45 18 19 0 -7 5 -5 11 5 6 10 8
24 5 32 -3 10 2 12 22 9 15 -3 32 -6 38 -8 6 -3 18 4 27 15 14 16 15 19 2 19
-8 0 -15 5 -15 10 0 6 5 10 10 10 7 0 7 6 0 19 -5 11 -7 26 -4 34 6 17 0 22
-37 30 -21 5 -27 2 -37 -21 -6 -15 -10 -20 -8 -12 2 8 -3 23 -12 33 -10 11
-11 17 -4 17 7 0 12 -6 12 -12 0 -9 3 -8 10 2 6 9 5 19 -3 29 -10 12 -8 14 11
9 27 -8 30 8 2 17 -11 3 -20 11 -20 16 0 6 5 7 12 3 7 -4 8 -3 4 4 -4 8 -15 8
-31 2 -22 -9 -25 -7 -25 15 0 14 -4 25 -9 25 -5 0 -7 10 -3 22 3 14 2 19 -6
14 -7 -4 -12 -2 -12 3 0 6 -7 11 -16 11 -8 0 -12 5 -9 10 3 5 1 10 -4 10 -15
0 -14 -37 2 -43 9 -4 9 -6 0 -6 -7 -1 -13 -8 -13 -16 0 -9 -10 -15 -26 -15
-14 0 -23 4 -19 10 4 6 10 8 15 5 4 -3 6 5 3 16 -6 21 -6 21 -24 -2 -10 -13
-19 -28 -19 -33 0 -4 -8 1 -17 12 -16 18 -20 19 -31 7 -11 -12 -10 -15 3 -15
11 0 15 -7 13 -22 -2 -14 -9 -22 -18 -19 -35 8 -45 6 -42 -13 3 -14 -1 -17
-12 -13 -9 4 -16 1 -16 -5 0 -7 -4 -7 -14 1 -10 8 -16 9 -21 1 -10 -16 -28
-12 -21 5 3 8 1 15 -4 15 -6 0 -10 -10 -10 -22 0 -19 -2 -20 -10 -8 -8 12 -10
12 -11 -5 -4 -78 8 -145 27 -145 8 0 17 -7 20 -15 3 -8 14 -17 25 -20 24 -8
25 -35 2 -29 -10 2 -24 0 -31 -4 -11 -8 -10 -23 8 -83 25 -82 90 -250 121
-311 l20 -39 296 3 297 3 13 -54 c13 -50 13 -55 -5 -75 -11 -11 -25 -31 -31
-43 -13 -25 -15 -109 -2 -117 4 -3 11 -26 14 -51 4 -24 11 -53 16 -62 5 -10
12 -30 16 -45 3 -17 17 -34 33 -42 16 -8 79 -64 142 -125 62 -60 125 -115 141
-122 29 -11 29 -12 24 -78 -4 -36 -8 -76 -11 -89 -4 -20 4 -27 71 -57 165 -76
405 -141 607 -165 131 -16 484 -8 603 14 98 18 314 73 333 85 9 5 7 42 -8 151
-11 79 -20 149 -20 155 0 17 85 75 125 86 19 5 40 15 48 22 19 18 108 64 138
71 32 7 89 69 89 95 0 10 16 31 35 45 29 22 35 33 35 64 0 21 -6 46 -14 57 -7
11 -16 58 -19 105 -4 47 -10 114 -13 149 -5 45 -4 62 4 58 5 -4 13 -1 15 5 4
10 6 10 6 1 1 -7 8 -13 17 -13 8 0 13 4 10 9 -4 5 2 8 11 6 10 -2 18 -4 18 -5
0 -2 17 -4 38 -5 20 -1 37 1 37 6 0 4 97 6 215 4 118 -2 215 0 215 4 0 5 38 8
85 8 47 -1 85 -5 85 -10 0 -4 6 -5 13 0 6 4 19 8 27 8 21 0 43 47 27 57 -8 5
-7 8 5 8 17 0 25 16 34 65 6 36 -11 39 -94 17 -58 -16 -72 -17 -76 -6 -3 9 1
14 12 14 9 0 24 5 32 10 11 8 7 9 -16 5 -29 -4 -31 -3 -29 23 1 15 3 78 3 141
2 99 4 112 18 107 13 -5 14 -1 9 22 -5 23 -2 28 15 28 11 0 20 -6 20 -14 0 -7
5 -10 11 -6 9 5 10 -7 4 -42 -7 -50 -7 -232 0 -244 2 -4 30 -6 60 -6 l57 1 19
55 c43 124 90 350 71 350 -5 0 -12 -9 -15 -19 -2 -11 -15 -21 -28 -23 -14 -2
-23 -9 -21 -17 3 -12 0 -12 -12 -1 -10 7 -46 13 -91 14 -48 1 -75 5 -75 12 0
7 -12 19 -26 29 -15 9 -23 22 -20 30 3 8 0 17 -6 21 -7 4 -6 9 3 15 10 6 8 13
-10 28 -13 12 -21 21 -16 21 4 0 1 8 -6 17 -10 11 -10 14 -1 9 8 -5 12 0 12
13 0 12 -4 21 -10 21 -19 0 -10 16 10 17 13 1 20 -4 20 -15 0 -15 2 -15 10 -2
8 12 10 12 10 1 0 -8 3 -12 6 -8 12 12 -7 45 -24 40 -15 -4 -17 11 -19 163
l-2 166 28 11 c15 5 37 28 50 49 14 24 36 45 57 54 36 15 45 40 18 51 -9 3
-25 1 -35 -5 -26 -16 -39 -15 -39 4 0 13 3 14 14 5 21 -17 27 1 15 44 -9 32
-8 41 5 51 10 7 16 26 16 48 0 32 -3 36 -25 36 -14 0 -25 5 -25 11 0 12 51 3
60 -11 3 -5 21 -1 40 7 19 9 41 15 48 14 27 -4 21 32 -23 146 -81 206 -194
399 -330 562 -79 94 -122 137 -130 129 -3 -2 4 -14 15 -26 12 -12 18 -22 15
-22 -3 0 -1 -9 5 -20 12 -22 1 -27 -18 -8 -9 9 -12 9 -12 1 0 -7 5 -15 10 -18
6 -4 8 -11 4 -16 -3 -6 6 -21 21 -35 14 -13 24 -28 21 -33 -7 -11 -46 -2 -46
10 0 5 -7 6 -15 3 -8 -4 -15 -15 -15 -25 0 -25 -20 -24 -27 1 -3 11 -10 20
-17 19 -20 -2 -61 -17 -48 -18 6 -1 12 -5 12 -11 0 -5 -6 -7 -14 -4 -8 3 -17
0 -22 -7 -4 -7 -3 -14 3 -16 5 -2 8 -14 6 -27 -4 -17 1 -27 16 -36 12 -6 25
-9 29 -6 4 3 14 0 22 -5 12 -8 12 -12 3 -16 -7 -2 -13 -11 -13 -19 0 -22 -31
-17 -37 6 -3 11 -14 20 -25 20 -10 0 -16 -4 -13 -10 3 -5 1 -10 -6 -10 -8 0
-8 -4 1 -15 7 -9 19 -14 26 -11 7 3 15 -2 18 -11 5 -11 10 -12 19 -4 10 7 17
7 24 0 8 -8 17 -7 32 2 18 12 23 11 38 -4 15 -15 16 -17 1 -17 -9 0 -19 -7
-22 -16 -3 -9 -13 -14 -21 -10 -8 3 -17 1 -20 -3 -2 -5 -25 -12 -50 -15 -25
-4 -45 -12 -45 -17 0 -6 -12 -1 -26 10 -15 12 -33 21 -40 21 -19 0 -18 -29 1
-36 22 -9 19 -34 -4 -34 -10 0 -21 -7 -25 -15 -6 -17 13 -65 26 -65 4 0 8 -10
8 -22 l0 -21 -23 21 c-23 22 -37 20 -37 -4 0 -6 10 -15 23 -19 12 -3 17 -8 11
-11 -15 -6 -5 -54 11 -54 7 0 15 6 18 13 2 6 7 9 11 6 12 -11 -6 -39 -25 -39
-26 0 -24 -25 3 -45 15 -10 19 -18 12 -23 -22 -15 -23 -40 -1 -47 18 -6 14 -9
-22 -14 -65 -9 -65 -30 1 -58 22 -10 30 -9 46 5 10 9 17 23 15 30 -3 6 0 12 5
12 6 0 13 -6 15 -12 4 -9 8 -9 14 -3 4 6 15 11 23 13 8 2 17 8 18 13 2 5 10 9
18 9 7 0 17 15 22 33 6 23 15 33 33 35 13 2 29 9 34 15 15 18 49 14 58 -6 8
-22 1 -37 -18 -37 -7 0 -18 -15 -25 -34 -8 -25 -17 -33 -33 -33 -13 0 -41 -17
-62 -36 -39 -35 -39 -37 -20 -51 24 -18 55 -21 55 -4 0 6 2 9 5 7 2 -3 2 -14
-1 -26 -5 -17 -13 -21 -40 -19 -43 2 -81 -33 -69 -61 15 -32 12 -64 -3 -58 -9
3 -22 -4 -31 -17 -17 -25 -17 -33 2 -33 7 0 11 -11 9 -27 -3 -22 3 -32 30 -48
42 -25 61 -26 53 -1 -4 14 -1 19 12 17 15 -1 18 8 19 54 1 39 -3 58 -14 66
-14 10 -14 13 0 28 23 23 31 20 17 -6 -11 -21 -11 -22 4 -9 10 7 17 26 17 42
0 16 4 29 10 29 14 0 25 73 11 78 -25 8 -9 24 21 20 22 -4 37 1 50 14 18 18
44 16 33 -3 -12 -18 14 -9 42 15 24 21 26 26 14 40 -8 9 -11 20 -7 23 4 4 -4
13 -16 20 -23 12 -22 12 8 13 33 0 48 -18 38 -45 -4 -10 0 -15 12 -15 17 -1
16 -3 -6 -23 -16 -14 -24 -30 -22 -44 2 -14 -4 -27 -17 -35 -12 -7 -21 -17
-21 -21 0 -13 27 -37 41 -37 9 0 9 -3 0 -14 -8 -9 -8 -16 -2 -20 6 -4 8 -13 5
-21 -3 -8 1 -24 9 -35 8 -12 13 -29 10 -40 -3 -10 0 -21 7 -25 8 -5 8 -11 -1
-22 -10 -11 -10 -22 -1 -46 16 -46 20 -279 5 -284 -7 -3 -10 -10 -7 -18 4 -9
0 -12 -14 -8 -24 6 -38 -13 -22 -32 10 -12 7 -12 -21 -2 -25 9 -33 9 -36 0 -3
-7 -11 -13 -19 -13 -8 0 -14 -4 -14 -10 0 -10 21 -14 48 -11 16 2 16 -16 0
-22 -10 -4 -10 -6 -1 -6 7 -1 22 7 32 16 32 27 51 25 50 -5 0 -22 -2 -23 -8
-9 -6 17 -9 16 -34 -9 -34 -34 -34 -44 1 -41 18 1 27 -3 27 -13 0 -8 5 -18 10
-22 6 -4 1 -8 -9 -8 -11 0 -16 -3 -13 -6 11 -12 -12 -42 -35 -47 -20 -4 -20
-4 4 -6 37 -2 42 -16 11 -30 -22 -10 -25 -9 -20 4 8 19 -2 19 -40 0 -36 -18
-52 -46 -22 -38 10 3 19 0 19 -6 0 -6 -16 -11 -35 -11 -22 0 -35 5 -35 13 0 7
-11 14 -25 15 l-25 2 7 -140 c5 -122 4 -148 -13 -195 -15 -45 -22 -55 -41 -55
-25 0 -31 -15 -10 -23 7 -3 5 -6 -5 -6 -10 -1 -18 3 -18 8 0 5 -3 17 -7 27 -4
11 -3 15 5 10 6 -3 13 -2 17 4 3 5 -1 10 -10 10 -9 0 -19 -9 -22 -20 -8 -32
-36 -26 -30 7 6 30 -12 53 -40 53 -17 -1 -17 -2 2 -17 20 -16 16 -16 -31 4
-15 5 -15 3 1 -20 9 -15 13 -27 7 -27 -17 0 -42 29 -36 43 7 18 55 35 92 32
31 -3 44 9 20 18 -8 3 -5 6 6 6 15 1 17 -5 14 -29 -4 -24 -1 -30 13 -30 16 0
17 15 18 159 2 150 1 159 -18 164 -11 3 -22 0 -25 -7 -3 -6 -3 0 0 14 3 14 13
31 23 38 13 11 4 12 -59 6 -41 -4 -76 -11 -78 -15 -2 -5 -17 -9 -33 -9 -16 0
-29 -5 -29 -12 0 -10 -3 -9 -9 1 -12 18 -32 5 -24 -16 5 -12 2 -15 -9 -11 -21
8 -27 -50 -22 -197 2 -79 7 -109 15 -107 13 3 29 -16 29 -35 0 -16 -56 -17
-66 -2 -3 6 0 15 7 20 11 7 11 9 -2 9 -18 0 -35 -43 -19 -48 6 -2 10 -10 10
-18 0 -8 5 -14 11 -14 5 0 7 5 3 12 -4 7 -3 8 5 4 18 -12 2 -27 -24 -22 -35 6
-45 14 -56 44 -7 19 -7 28 3 33 10 5 12 42 10 158 -3 142 -4 151 -23 151 -10
0 -19 5 -19 11 0 6 9 8 20 4 11 -3 20 -2 20 3 0 6 13 8 29 6 36 -6 50 12 25
31 -23 17 -76 19 -92 3 -9 -9 -13 -8 -17 4 -5 11 -15 15 -36 11 -19 -3 -29 0
-30 9 0 22 -35 166 -87 368 -33 124 -57 199 -68 207 -9 7 -37 15 -63 19 -25 3
-104 26 -176 51 -71 24 -145 50 -163 56 -23 7 -32 16 -29 26 13 44 12 46 -17
49 -38 5 -58 25 -51 54 6 22 4 23 -43 20 -33 -3 -61 2 -82 13 -32 17 -33 17
-27 76 3 41 2 59 -6 60 -7 1 -23 2 -37 2 -15 1 -26 9 -28 20 -3 13 3 17 27 17
17 0 31 4 31 9 0 5 3 17 7 27 5 14 2 16 -28 10 -76 -15 -99 0 -99 61 0 41 -22
86 -61 124 -32 31 -38 63 -13 73 9 3 14 12 11 19 -3 7 10 23 29 36 18 13 36
32 40 43 3 11 24 43 45 72 49 64 83 150 69 174 -8 15 -10 15 -11 -3 -1 -11 -2
-26 -2 -32 1 -7 -3 -13 -7 -13 -4 0 -11 -11 -14 -25 -4 -14 -11 -25 -16 -25
-11 0 -10 69 2 76 14 9 9 26 -6 21 -10 -4 -13 -1 -10 7 7 18 66 30 75 15 4 -8
8 -7 12 2 3 11 6 10 12 -3 7 -17 8 -17 24 0 9 10 13 13 9 8 -13 -16 -9 -26 7
-20 8 4 15 14 16 23 0 11 3 9 9 -6 10 -24 53 -32 65 -13 3 6 10 10 15 10 10 0
38 -48 51 -90 6 -16 7 -6 3 30 -8 84 -9 88 -28 109 -17 18 -17 20 1 30 17 10
16 10 -4 11 -16 0 -21 4 -17 15 4 8 1 15 -5 15 -6 0 -11 15 -12 33 0 17 -3 26
-6 20 -4 -10 -7 -10 -17 0 -30 28 -72 63 -79 65 -4 1 -18 4 -32 8 -14 3 -23
10 -20 14 8 13 -158 23 -209 12 -28 -6 -62 -6 -86 -1 -31 7 -49 5 -87 -12 -76
-32 -136 -75 -162 -116 -14 -21 -37 -51 -52 -68 -50 -57 -79 -109 -79 -145 0
-19 -6 -42 -13 -50 -27 -34 -80 -70 -103 -70 -13 0 -24 -4 -24 -9 0 -13 -27
-21 -45 -15 -31 12 16 84 54 84 11 0 17 11 19 38 1 24 10 43 24 53 11 9 18 21
14 27 -3 6 1 15 10 20 22 13 11 42 -16 42 -28 0 -64 35 -57 54 4 9 3 16 -2 16
-4 0 -8 7 -8 15 0 8 5 15 11 15 6 0 5 5 -3 13 -10 10 -14 8 -22 -6 -7 -12 -20
-17 -45 -15 -19 1 -34 6 -34 12 0 5 -9 -1 -20 -14 -11 -13 -20 -18 -20 -12 0
6 5 14 11 17 7 5 5 13 -5 24 -9 10 -13 21 -10 24 8 8 -14 37 -28 37 -5 0 -6
-5 -2 -11 5 -9 -4 -10 -31 -5 -25 5 -35 4 -30 -3 3 -6 -1 -11 -10 -11 -9 0
-15 7 -13 15 2 9 -8 21 -22 28 -15 8 -24 20 -22 30 2 10 -4 18 -15 19 -10 1
-27 2 -38 3 -11 1 -26 3 -32 4 -7 0 -13 8 -13 17 0 11 -6 15 -20 11 -13 -3
-21 1 -25 13 -10 31 -29 29 -84 -11z m164 -1178 c3 -5 -6 -22 -20 -37 -21 -23
-35 -64 -21 -64 18 0 36 15 36 29 0 22 50 22 94 0 23 -11 30 -11 34 -1 5 16
29 16 39 -1 4 -6 20 -18 34 -26 15 -7 32 -24 38 -38 10 -21 8 -29 -15 -56 -15
-18 -42 -40 -60 -50 -33 -17 -39 -26 -34 -56 1 -8 -4 -12 -14 -8 -8 3 -20 -1
-27 -9 -10 -12 -14 -12 -21 -2 -6 10 -10 10 -17 -2 -7 -10 -6 -17 2 -22 7 -4
8 -8 2 -8 -5 0 -20 -3 -32 -6 -16 -5 -23 -2 -23 9 0 12 -7 11 -41 -6 -38 -19
-40 -22 -24 -33 10 -8 22 -11 26 -8 18 11 8 -9 -13 -28 -24 -20 -59 -21 -66 0
-2 7 6 12 20 13 13 0 17 3 11 6 -7 2 -13 22 -13 43 0 21 -5 42 -11 46 -8 4 -8
8 0 13 6 4 11 56 13 129 2 120 3 122 30 142 15 11 32 20 38 20 5 0 10 5 10 10
0 13 17 13 25 1z m868 -283 c6 -43 14 -78 17 -78 4 0 29 28 56 63 27 34 66 81
88 105 35 38 40 41 51 25 7 -10 11 -34 9 -57 -7 -65 -47 -226 -56 -226 -5 0
-21 11 -35 24 -39 36 -92 63 -101 51 -9 -13 -58 -35 -77 -35 -8 0 -15 6 -15
14 0 7 -7 19 -15 26 -18 15 -63 0 -91 -31 -25 -28 -34 -23 -34 16 0 19 5 35
10 35 6 0 8 11 3 28 -6 24 -7 77 -3 137 1 14 9 4 28 -31 49 -92 103 -156 119
-141 2 3 -3 24 -11 48 -12 35 -13 51 -4 82 8 28 8 50 0 88 -7 28 -12 63 -12
77 1 47 61 -138 73 -220z m154 -252 c-3 -12 -11 -60 -17 -107 -10 -69 -16 -86
-29 -85 -9 0 -18 7 -21 14 -3 7 -26 -15 -55 -53 -45 -60 -65 -77 -65 -57 0 4
23 34 50 67 28 33 50 64 50 71 0 6 -7 28 -15 48 -14 32 -14 40 -1 64 17 34 34
48 61 54 39 8 46 5 42 -16z m533 -83 c0 -9 -7 -24 -16 -34 -12 -13 -16 -41
-17 -111 -1 -58 -4 -82 -8 -63 l-7 30 -1 -27 c0 -16 -6 -28 -13 -28 -6 0 -9
-3 -5 -6 15 -16 -35 -45 -102 -59 -41 -8 -75 -14 -77 -12 -2 2 14 32 36 68 41
67 42 69 75 109 15 19 16 21 3 11 -35 -27 -20 19 20 58 20 21 45 48 54 60 21
25 58 28 58 4z m1244 -318 c-1 -36 -5 -68 -7 -72 -3 -5 -4 -54 -3 -111 1 -79
4 -105 16 -112 10 -7 11 -10 3 -10 -7 0 -13 -10 -13 -23 0 -18 10 -25 60 -41
48 -16 62 -17 75 -6 9 8 15 8 15 2 0 -22 -45 -38 -56 -20 -4 6 -10 5 -15 -3
-8 -12 -11 -11 -19 1 -9 13 -10 13 -11 0 -1 -8 -1 -21 0 -27 1 -7 -3 -13 -8
-13 -5 0 -8 9 -6 21 3 16 -5 24 -35 38 -30 13 -37 20 -28 29 9 9 9 12 1 12 -8
0 -9 9 -3 31 6 20 6 39 0 50 -18 32 -12 171 10 235 11 32 18 64 16 71 -3 7 -2
13 3 13 5 0 7 -29 5 -65z m-3154 -162 c0 -7 -11 -13 -25 -13 -17 0 -29 -9 -40
-30 -17 -33 -18 -41 -7 -39 34 6 62 -3 62 -18 0 -11 -3 -14 -8 -7 -9 14 -92
25 -92 13 0 -9 28 -14 63 -11 12 1 17 -6 17 -26 0 -22 -2 -24 -11 -12 -8 12
-9 9 -5 -13 6 -24 -10 -57 -27 -57 -9 0 -2 75 8 82 6 4 2 8 -9 8 -15 0 -17 -5
-12 -26 5 -17 3 -23 -4 -19 -5 3 -10 14 -11 23 0 14 -2 13 -9 -3 -6 -17 -9
-14 -15 18 -7 37 -19 48 -28 25 -4 -10 -8 -9 -16 2 -7 10 -11 11 -11 3 0 -7
-3 -13 -7 -13 -5 0 -8 20 -9 45 -1 35 3 45 15 46 10 0 12 2 4 6 -26 10 -11 18
34 18 31 0 52 -5 60 -15 6 -8 15 -12 19 -8 4 4 1 14 -6 23 -8 9 -8 15 -2 15 6
0 14 -4 17 -10 3 -5 15 -10 26 -10 16 0 19 5 14 23 -5 17 -4 19 4 7 6 -8 11
-21 11 -27z m2616 22 c-19 -14 -18 -15 12 -15 18 0 32 4 32 9 0 14 38 24 52
14 9 -5 3 -10 -17 -14 -27 -6 -25 -7 15 -9 25 -2 53 -3 63 -3 11 0 17 -7 17
-24 0 -13 -3 -22 -7 -20 -5 3 -17 1 -28 -4 -19 -7 -19 -8 2 -8 12 -1 25 -6 28
-11 4 -7 -2 -9 -19 -4 -21 5 -25 3 -20 -10 3 -9 1 -16 -5 -16 -5 0 -16 18 -22
40 -13 43 -16 45 -98 54 -25 2 -40 2 -34 -2 6 -4 18 -23 26 -42 l16 -35 -6 35
c-6 38 5 38 12 0 7 -36 15 -37 15 -2 0 18 4 32 9 32 18 0 41 -12 41 -22 0 -5
-4 -6 -10 -3 -5 3 -10 1 -10 -4 0 -6 7 -11 15 -11 17 0 20 -25 5 -35 -5 -3
-10 2 -11 12 0 12 -2 14 -6 4 -5 -11 -7 -11 -15 0 -7 10 -8 8 -5 -9 4 -15 1
-20 -6 -15 -18 11 -38 12 -31 2 3 -5 -7 -9 -22 -9 -23 0 -25 2 -14 15 7 9 10
18 6 22 -3 3 -6 1 -6 -6 0 -9 -5 -9 -20 -1 -11 6 -20 18 -20 26 0 8 4 13 9 10
5 -3 11 1 15 9 3 8 0 17 -5 21 -6 3 1 14 18 24 34 22 56 25 29 5z m-940 -40
c12 -8 27 -28 34 -45 12 -28 40 -42 40 -20 0 6 8 10 18 10 10 0 23 5 30 12 9
9 12 9 12 1 0 -9 10 -8 35 3 43 18 45 17 45 -1 0 -8 -5 -15 -12 -15 -9 0 -9
-3 0 -12 12 -12 17 -60 6 -71 -10 -10 -34 5 -34 22 0 13 -2 14 -9 1 -6 -8 -7
-18 -4 -23 3 -5 -1 -13 -8 -18 -9 -5 -16 -3 -21 9 -6 15 -7 15 -7 1 -1 -22
-32 -34 -43 -17 -11 18 -10 28 2 28 6 0 5 8 -2 20 -13 21 -38 27 -38 10 0 -5
5 -10 11 -10 13 0 2 -37 -21 -70 -17 -23 -31 -29 -82 -33 -10 -1 -18 -5 -18
-10 0 -5 18 -6 40 -2 40 7 57 -7 24 -19 -29 -11 -84 -7 -84 7 0 7 -15 20 -33
30 -35 19 -67 63 -67 92 0 9 5 13 10 10 6 -4 8 -11 5 -16 -4 -5 -1 -9 5 -9 7
0 10 7 6 15 -10 27 6 76 36 106 33 33 89 40 124 14z m369 -373 c3 -31 10 -73
15 -93 16 -60 13 -78 -15 -85 -14 -4 -29 -4 -32 0 -6 5 -31 192 -32 239 -1 10
4 15 9 12 6 -3 10 2 10 12 1 16 3 15 20 -5 11 -13 21 -46 25 -80z m-689 -247
c29 -14 81 -29 117 -34 57 -8 205 -70 244 -103 20 -16 -13 -212 -35 -206 -4 1
-62 -4 -128 -11 -118 -13 -174 -10 -174 8 0 5 16 15 35 21 38 12 47 30 16 30
-10 0 -24 7 -31 15 -7 8 -36 26 -66 40 -30 14 -54 30 -54 36 0 6 -7 8 -16 5
-8 -3 -29 1 -47 10 -30 16 -31 16 -50 -7 -15 -19 -36 -27 -96 -36 -42 -6 -85
-15 -97 -18 -12 -4 -27 -1 -35 7 -8 7 -22 19 -32 27 -15 12 -17 12 -11 -4 6
-15 2 -17 -32 -12 -21 2 -52 8 -69 11 -21 5 -26 4 -15 -3 21 -14 8 -22 -44
-25 -34 -2 -46 1 -46 11 0 20 26 67 45 83 9 8 25 30 35 50 10 19 38 56 62 82
37 39 51 47 103 57 80 14 219 7 223 -12 7 -34 -44 -55 -123 -49 -35 2 -110 -9
-125 -19 -13 -8 -13 -11 0 -22 8 -6 20 -25 25 -42 l11 -30 82 0 c68 1 84 4 96
20 13 18 14 18 41 -9 29 -29 30 -29 56 17 14 24 38 21 48 -6 14 -35 31 -44 96
-51 113 -12 132 48 25 77 -100 28 -183 128 -134 164 17 12 20 11 33 -17 10
-20 32 -38 67 -55z m477 -167 c55 -74 43 -238 -18 -238 -11 0 -12 7 -4 32 5
18 9 49 9 68 l-1 35 -14 -30 -13 -30 -1 38 c-1 20 -5 37 -10 37 -14 0 -20 38
-7 45 6 3 1 3 -11 1 -18 -3 -23 1 -23 15 0 17 3 18 21 9 16 -9 20 -8 18 2 -7
56 18 64 54 16z m-671 -93 c0 -8 1 -20 2 -27 1 -7 -34 -19 -84 -29 -47 -10
-97 -21 -111 -24 -20 -5 -33 -1 -53 16 -37 32 -32 44 17 46 23 0 69 8 102 16
83 20 125 21 127 2z"/>
<path d="M2425 3170 c-17 -9 -33 -13 -36 -8 -13 20 -122 5 -206 -30 -63 -25
-84 -82 -31 -82 11 0 32 -7 48 -16 41 -25 88 -12 135 37 l38 41 15 -36 c8 -20
17 -36 21 -36 9 0 41 59 41 76 0 8 6 23 12 34 19 30 -1 41 -37 20z"/>
<path d="M2527 2967 c-15 -12 -27 -29 -27 -37 0 -11 -3 -11 -12 -2 -10 10 -10
15 1 21 18 12 6 30 -19 28 -17 -1 -19 -6 -14 -38 l6 -36 -62 -7 c-42 -5 -66
-3 -76 5 -12 9 -14 6 -14 -18 0 -32 15 -53 40 -53 17 -1 56 -27 49 -35 -3 -2
-30 -7 -60 -11 -45 -5 -58 -3 -73 11 -16 17 -18 17 -34 1 -16 -16 -16 -17 2
-10 16 6 17 5 7 -14 -11 -22 -10 -22 59 -23 96 -3 94 -2 106 -19 10 -11 17
-12 35 -3 29 14 59 13 59 -1 0 -6 5 -3 11 6 7 12 6 24 -1 38 -8 14 -8 20 0 20
6 0 11 10 10 23 -4 43 -1 50 14 38 11 -9 15 -8 20 4 3 9 10 13 16 10 5 -3 10
1 10 9 0 19 -16 21 -26 5 -4 -7 -12 1 -20 21 -17 40 -17 40 0 40 9 0 12 -7 9
-20 -4 -16 -2 -19 13 -14 33 12 43 32 30 59 -14 31 -26 31 -59 2z"/>
</g>
</svg>
